<mxfile host="app.diagrams.net" modified="2024-04-23T10:34:03.806Z" agent="Mozilla/5.0 (Windows NT 10.0; Win64; x64) AppleWebKit/537.36 (KHTML, like Gecko) Chrome/124.0.0.0 Safari/537.36" version="24.2.8" etag="yjyKUfcFIe0xZIr0L4DP" type="github">
  <diagram name="Page-1" id="e5wsnIHeT57XY45MXEmt">
    <mxGraphModel>
      <root>
        <mxCell id="0" />
        <mxCell id="1" parent="0" />
      </root>
    </mxGraphModel>
  </diagram>
</mxfile>
